<?xml version="1.0" encoding="utf-8"?>
<!DOCTYPE svg PUBLIC "-//W3C//DTD SVG 1.1//EN" "http://www.w3.org/Graphics/SVG/1.1/DTD/svg11.dtd">
<svg version="1.1" xmlns="http://www.w3.org/2000/svg" xmlns:xlink="http://www.w3.org/1999/xlink" x="0px" y="0px" viewBox="0 0 1000 1000" enable-background="new 0 0 1000 1000" xml:space="preserve">
<g><g transform="translate(0.000000,511.000000) scale(0.100000,-0.100000)"><path fill="#BBBDF6" d="M3005.2,2886.3v-769.3l69.6-57.3C3291.7,1877.7,5235.3,124.3,5235.3,110c0-16.4-1818.8-1653.1-2070.5-1861.8l-159.6-131v-775.4c0-476.7,8.2-771.3,18.4-767.2c45,14.3,3954.8,3496.5,3967.1,3531.3c6.1,22.5-3909.8,3521-3965,3539.5C3013.4,3649.5,3005.2,3361,3005.2,2886.3z"/><path fill="#BBBDF6" d="M5930.9,2886.3v-767.2l116.6-100.3C6319.6,1787.7,8171.2,124.3,8171.2,110c0-24.6-1994.8-1800.4-2123.7-1892.5l-116.6-81.8V-2650c0-746.8,2-783.6,36.8-754.9C6651.1-2815.7,9900,87.5,9900,110c0,22.5-3302.1,2972.7-3932.3,3514.9C5932.9,3653.5,5930.9,3616.7,5930.9,2886.3z"/></g></g>
</svg>