<svg width="23" height="23" viewBox="0 0 23 23" fill="none" xmlns="http://www.w3.org/2000/svg">
<path d="M2.66108 20.3388C1.68477 19.3625 1.68477 17.7796 2.66108 16.8033L16.8032 2.66117C17.7795 1.68486 19.3624 1.68486 20.3387 2.66117C21.3151 3.63748 21.3151 5.2204 20.3387 6.19671L6.19661 20.3388C5.2203 21.3152 3.63739 21.3152 2.66108 20.3388Z" fill="#fff"/>
<path d="M2.76788 2.76776C3.74419 1.79145 5.3271 1.79145 6.30341 2.76776L20.4455 16.9099C21.4219 17.8862 21.4219 19.4691 20.4455 20.4454C19.4692 21.4217 17.8863 21.4217 16.91 20.4454L2.76788 6.30329C1.79157 5.32698 1.79157 3.74407 2.76788 2.76776Z" fill="#fff"/>
</svg>
